<?xml version="1.0" encoding="UTF-8"?>
<svg width="164px" height="86px" viewBox="0 0 164 86" version="1.1" xmlns="http://www.w3.org/2000/svg" xmlns:xlink="http://www.w3.org/1999/xlink">
    <!-- Generator: Sketch 51.3 (57544) - http://www.bohemiancoding.com/sketch -->
    <title>levno_logo</title>
    <desc>Created with Sketch.</desc>
    <defs></defs>
    <g id="levno_logo" stroke="none" stroke-width="1" fill="none" fill-rule="evenodd">
        <g id="Levno-logo-colour">
            <g id="Levno-logo-white">
                <path d="M15.77,8.90175439 C15.021326,8.89587332 14.3026324,9.19728533 13.7798703,9.73639236 C13.2571082,10.2754994 12.9754744,11.0056916 13,11.7583626 L13,55.7290058 C12.9377505,56.7771984 13.4583499,57.7737049 14.3518831,58.316716 C15.2454163,58.8597272 16.3645837,58.8597272 17.2581169,58.316716 C18.1516501,57.7737049 18.6722495,56.7771984 18.61,55.7290058 L18.61,11.7583626 C18.6181117,10.9982711 18.3215038,10.2669314 17.7871319,9.72943454 C17.2527601,9.19193773 16.5256724,8.89359527 15.77,8.90175439 Z" id="Shape" fill="#FFFFFF" fill-rule="nonzero"></path>
                <path d="M40.4,21.2334503 C31.9,21.2334503 25.85,26.7354386 25.09,35.6573099 C24.8539719,38.4375982 24.8305698,41.2320133 25.02,44.0159064 C25.52,53.1439766 31.325,58.9980117 40.745,58.9980117 C44.83,58.9980117 49.545,58.0927485 51.745,56.7700585 C52.6769164,56.2839528 53.2571258,55.311282 53.245,54.2554386 C53.245,52.5153216 51.515,51.117193 49.245,52.0224561 C45.85,53.2093567 43.08,53.8329825 40.795,53.8329825 C34.63,53.8329825 30.47,50.0007018 30.47,43.5884211 L30.47,42.4719298 L51.185,42.4719298 C53.885,42.4719298 55.275,41.1492398 55.275,38.448538 L55.275,36.3563743 C55.275,31.8954386 53.89,28.274386 51.185,25.4881871 C48.48,22.7019883 44.9,21.2334503 40.4,21.2334503 Z M49.82,36.9095906 C49.8239706,37.1447656 49.7279303,37.3704584 49.5560297,37.5299161 C49.384129,37.6893738 49.1527226,37.7674256 48.92,37.7444444 L30.495,37.7444444 C30.285,30.7035088 33.82,26.3180117 40.495,26.3180117 C46.5,26.3180117 50.17,30.5727485 49.825,36.9095906 L49.82,36.9095906 Z" id="Shape" fill="#FFFFFF" fill-rule="nonzero"></path>
                <path d="M87.18,21.7212865 C85.865,21.7212865 84.965,22.485731 84.41,23.9492398 L74.225,52.5907602 C74.015,52.9377778 73.725,52.9377778 73.53,52.5907602 L63.14,23.6726316 C62.64,22.3499415 61.755,21.6609357 60.575,21.6609357 C59.5954208,21.6287703 58.6681325,22.1051478 58.1197925,22.9222539 C57.5714526,23.7393599 57.4789988,24.7825462 57.875,25.6843275 L68.615,54.4616374 C69.655,57.3182456 71.385,58.7817544 73.81,58.7817544 C76.235,58.7817544 78.105,57.3182456 79.215,54.3912281 L89.815,25.7497076 C90.1859983,24.8575269 90.0915924,23.8381834 89.5631419,23.0302818 C89.0346915,22.2223801 88.1413999,21.7317193 87.18,21.7212865 Z" id="Shape" fill="#FFFFFF" fill-rule="nonzero"></path>
                <path d="M108.53,21.2334503 C98.9,21.2334503 93.635,26.2626901 93.635,35.4511111 L93.635,55.7290058 C93.635,57.3987135 94.745,58.6560234 96.405,58.6560234 C97.171798,58.6604684 97.9074492,58.3511874 98.4430256,57.7992009 C98.9786021,57.2472144 99.2680849,56.4999512 99.245,55.7290058 L99.245,35.7277193 C99.245,29.6674854 103.195,26.5996491 108.525,26.5996491 C113.855,26.5996491 117.81,29.6674854 117.81,35.7277193 L117.81,55.7290058 C117.786915,56.4999512 118.076398,57.2472144 118.611974,57.7992009 C119.147551,58.3511874 119.883202,58.6604684 120.65,58.6560234 C122.31,58.6560234 123.42,57.3987135 123.42,55.7290058 L123.42,35.4511111 C123.4,26.2526316 118.16,21.2334503 108.53,21.2334503 Z" id="Shape" fill="#FFFFFF" fill-rule="nonzero"></path>
                <path d="M160.27,35.028655 C160.167363,31.1881139 158.456807,27.5698258 155.56,25.065731 C152.72,22.485731 149.12,21.2334503 144.82,21.2334503 C140.52,21.2334503 136.9,22.5812865 134.01,25.1361404 C131.171976,27.6501096 129.492826,31.2318904 129.37,35.0336842 C129.162405,38.3278835 129.162405,41.6319996 129.37,44.9261988 C129.485545,48.8038157 131.190263,52.4607226 134.08,55.0299415 C136.99,57.6803509 140.58,59.0030409 144.82,59.0030409 C149.06,59.0030409 152.72,57.6803509 155.56,55.0299415 C158.449737,52.4607226 160.154455,48.8038157 160.27,44.9261988 C160.47794,41.6303325 160.47794,38.3245213 160.27,35.028655 Z M154.66,44.5842105 C154.16,50.0912281 150.365,53.7122807 144.82,53.7122807 C139.275,53.7122807 135.465,50.0912281 134.985,44.5842105 C134.777164,41.5451113 134.777164,38.4952396 134.985,35.4561404 C135.33,30.1603509 139.075,26.534269 144.82,26.534269 C150.565,26.534269 154.32,30.1553216 154.66,35.4561404 C154.865942,38.4936843 154.864272,41.5418676 154.655,44.5791813 L154.66,44.5842105 Z" id="Shape" fill="#FFFFFF" fill-rule="nonzero"></path>
                <path d="M156.64,13.7549708 C149.22062,9.89307489 140.39938,9.89307489 132.98,13.7549708 C132.126135,14.2041643 131.57538,15.0774317 131.535199,16.0458214 C131.495018,17.0142112 131.971516,17.9306019 132.785199,18.449798 C133.598883,18.9689942 134.626135,19.0121176 135.48,18.562924 C141.347354,15.5098625 148.322646,15.5098625 154.19,18.562924 C155.044758,19.0067272 156.069976,18.9581437 156.879466,18.4354744 C157.688955,17.912805 158.159734,16.9954557 158.114466,16.0289831 C158.069197,15.0625105 157.514758,14.1937448 156.66,13.7499415 L156.64,13.7549708 Z" id="Shape" fill="#F6861F"></path>
                <path d="M161.99,4.86327485 C151.271601,-0.966178835 138.353399,-0.966178835 127.635,4.86327485 C126.328847,5.57711097 125.845314,7.22082813 126.555,8.53461988 C127.264686,9.84841164 128.898847,10.3347718 130.205,9.62093567 C139.321936,4.66519951 150.308064,4.66519951 159.425,9.62093567 C160.274806,10.1321991 161.334911,10.1335288 162.185982,9.6243988 C163.037053,9.11526882 163.541996,8.1776922 163.501075,7.18253515 C163.460155,6.1873781 162.879963,5.29494517 161.99,4.85824561 L161.99,4.86327485 Z" id="Shape" fill="#F6861F"></path>
                <ellipse id="Oval" fill="#F6861F" fill-rule="nonzero" cx="144.82" cy="34.7470175" rx="2.715" ry="2.73087719"></ellipse>
                <polygon id="Shape" fill="#FFFFFF" fill-rule="nonzero" points="3.565 10.7977778 3.565 11.5873684 2.17 11.5873684 2.17 15.1782456 1.4 15.1782456 1.4 11.5873684 0 11.5873684 0 10.7977778"></polygon>
                <polygon id="Shape" fill="#FFFFFF" fill-rule="nonzero" points="8.465 10.7977778 8.465 15.1732164 7.68 15.1732164 7.68 11.9394152 6.335 13.8756725 4.99 11.9394152 4.99 15.1732164 4.21 15.1732164 4.21 10.7977778 5.08 10.7977778 6.34 12.6284211 7.6 10.7977778"></polygon>
                <path d="M16.61,80.9204678 C16.6341924,81.233279 16.4819752,81.5333213 16.2159602,81.6971777 C15.9499453,81.8610342 15.6150547,81.8610342 15.3490398,81.6971777 C15.0830248,81.5333213 14.9308076,81.233279 14.955,80.9204678 L14.955,67.9450292 C14.948203,67.7224148 15.0317498,67.5066007 15.186423,67.3472284 C15.3410961,67.1878562 15.5535803,67.0986456 15.775,67.100117 C15.9977388,67.098751 16.2116762,67.1874929 16.3687084,67.3463893 C16.5257406,67.5052856 16.6126878,67.721 16.61,67.9450292 L16.61,80.9204678 Z" id="Shape" fill="#FFFFFF" fill-rule="nonzero"></path>
                <path d="M28.555,75.8208187 C28.5998221,76.1523822 28.4865417,76.4857878 28.2493489,76.7204079 C28.0121561,76.9550279 27.6788395,77.0633752 27.35,77.0127485 L21.24,77.0127485 L21.24,77.3396491 C21.24,79.2306433 22.465,80.357193 24.285,80.357193 C25.1414842,80.316436 25.9857506,80.1364048 26.785,79.8240936 C27.0249544,79.6844975 27.3200934,79.6816144 27.562698,79.8164965 C27.8053026,79.9513786 27.9598751,80.2042901 27.97,80.482924 C27.9712183,80.7951674 27.7970334,81.0813332 27.52,81.2222222 C26.4990915,81.6829402 25.3886303,81.9080496 24.27,81.8810526 C21.49,81.8810526 19.77,80.1560234 19.63,77.4603509 C19.5664083,76.6384746 19.5664083,75.8128704 19.63,74.9909942 C19.855,72.3607018 21.63,70.7362573 24.13,70.7362573 C25.3229878,70.6782917 26.4837562,71.1357982 27.32,71.9935673 C28.1365873,72.8551655 28.5713186,74.0127612 28.525,75.2022222 L28.555,75.8208187 Z M26.675,75.6146199 C26.7437398,75.6218859 26.8122567,75.59899 26.8630084,75.5517943 C26.91376,75.5045986 26.9418185,75.4376856 26.94,75.3681871 C27.04,73.4973099 25.94,72.24 24.18,72.24 C22.215,72.24 21.18,73.5375439 21.235,75.6095906 L26.675,75.6146199 Z" id="Shape" fill="#FFFFFF" fill-rule="nonzero"></path>
                <path d="M34.355,81.8860819 C32.25,81.8860819 31.21,80.5281871 31.21,78.491345 L31.21,69.5493567 C31.203202,69.3280763 31.2862215,69.1135409 31.4399571,68.9551115 C31.5936928,68.796682 31.804906,68.7080015 32.025,68.7094737 C32.2477268,68.7067702 32.462187,68.7942258 32.6201595,68.9521764 C32.778132,69.1101269 32.866358,69.3253153 32.865,69.5493567 L32.865,71.2391813 L35.95,71.2391813 C36.2386278,71.2056027 36.5208032,71.3415987 36.6756281,71.5889017 C36.830453,71.8362047 36.830453,72.1509298 36.6756281,72.3982328 C36.5208032,72.6455358 36.2386278,72.7815318 35.95,72.7479532 L32.865,72.7479532 L32.865,78.5567251 C32.865,79.6480702 33.365,80.3471345 34.44,80.3471345 C34.9963836,80.2833148 35.5444566,80.1602466 36.075,79.98 C36.3199101,79.8773083 36.6001307,79.9086849 36.8165931,80.0630369 C37.0330555,80.2173888 37.155259,80.4729672 37.14,80.7394152 C37.1386011,81.1367333 36.8541394,81.4758447 36.465,81.5440936 C35.7876819,81.7841836 35.0730131,81.900017 34.355,81.8860819 Z" id="Shape" fill="#FFFFFF" fill-rule="nonzero"></path>
                <path d="M44.35,75.6950877 C46.17,76.1678363 47.07,77.1334503 47.07,78.5919298 C47.07,80.6036257 45.495,81.8810526 43.105,81.8810526 C41.7947562,81.9397723 40.5058774,81.5319711 39.465,80.7293567 C39.1416568,80.4523641 39.0712085,79.977815 39.3,79.6178947 C39.4151611,79.4241056 39.611048,79.2928704 39.8332099,79.2606686 C40.0553719,79.2284668 40.280127,79.298731 40.445,79.4519298 C41.2251987,80.1112655 42.2280602,80.4427041 43.245,80.3773099 C44.615,80.3773099 45.43,79.6581287 45.43,78.6723977 C45.43,77.9532164 44.88,77.4603509 43.795,77.1938012 C42.835,76.9674854 42.345,76.8618713 42.325,76.8417544 C40.405,76.3388304 39.445,75.3832749 39.445,73.9247953 C39.445,71.9734503 41,70.7362573 43.27,70.7362573 C44.3167226,70.6879899 45.3485127,71.0002241 46.195,71.6214035 C46.3631303,71.7587909 46.4686835,71.9588853 46.4875305,72.1759459 C46.5063776,72.3930065 46.4369072,72.6084762 46.295,72.7730994 C46.0173511,73.1075554 45.5228323,73.1525699 45.19,72.8736842 C44.5914774,72.4887895 43.9001166,72.2749528 43.19,72.2550877 C41.76,72.2550877 41.045,72.7898635 41.045,73.8594152 C41.045,74.5383626 41.475,74.9507602 42.64,75.2776608 L43.685,75.5240936 L44.35,75.6950877 Z" id="Shape" fill="#FFFFFF" fill-rule="nonzero"></path>
                <path d="M54.365,72.0991813 C54.2412756,71.8365146 54.2622754,71.5280284 54.4204395,71.284776 C54.5786037,71.0415236 54.8511639,70.8985222 55.14,70.9072515 C55.4958275,70.9282224 55.8029432,71.1653868 55.915,71.505731 L59.085,78.8484211 C59.145,78.9490058 59.185,78.9490058 59.25,78.8484211 L62.13,71.5711111 C62.2214226,71.1887496 62.5590567,70.9174769 62.95,70.9122807 C63.2377631,70.9063958 63.5082531,71.0499953 63.6657912,71.2922848 C63.8233293,71.5345743 63.8457037,71.8413925 63.725,72.1042105 L59.9,81.4787135 C59.145,83.3093567 57.98,84.8281871 57.06,85.3864327 C56.8424458,85.535516 56.5879733,85.6208362 56.325,85.6328655 C56.113382,85.6410214 55.907465,85.56283 55.754,85.4160436 C55.600535,85.2692573 55.5125425,85.0663297 55.51,84.8533333 C55.4879987,84.5573045 55.640645,84.2758164 55.9,84.134152 C57.042614,83.4282859 57.8864143,82.3234981 58.27,81.0311111 L54.365,72.0991813 Z" id="Shape" fill="#FFFFFF" fill-rule="nonzero"></path>
                <path d="M74.59,77.7319298 C74.5562069,78.8765119 74.0530753,79.9560147 73.2,80.714269 C72.334658,81.5040239 71.1978433,81.9242555 70.03,81.8860819 C68.8631725,81.9179716 67.7286135,81.4985738 66.86,80.714269 C66.0069247,79.9560147 65.5037931,78.8765119 65.47,77.7319298 C65.4088908,76.7605816 65.4088908,75.786319 65.47,74.8149708 C65.5075433,73.6943052 66.0032307,72.6389039 66.84,71.8980117 C67.7216742,71.1245531 68.8605646,70.7133758 70.03,70.7463158 C71.1901541,70.7001161 72.3240578,71.1012821 73.2,71.8678363 C74.0549533,72.6075936 74.5597208,73.675996 74.59,74.8099415 C74.6513203,75.7829612 74.6513203,76.7589102 74.59,77.7319298 Z M67.13,77.631345 C67.2394994,79.1624477 68.5063658,80.3483504 70.0325,80.3483504 C71.5586342,80.3483504 72.8255006,79.1624477 72.935,77.631345 C72.9963188,76.7338459 72.9963188,75.8331716 72.935,74.9356725 C72.7722112,73.4468072 71.5216338,72.3196712 70.0325,72.3196712 C68.5433662,72.3196712 67.2927888,73.4468072 67.13,74.9356725 C67.0670478,75.8330577 67.0653772,76.7337298 67.125,77.631345 L67.13,77.631345 Z" id="Shape" fill="#FFFFFF" fill-rule="nonzero"></path>
                <path d="M77.435,71.7521637 C77.4199019,71.5239268 77.4985686,71.2994554 77.6526211,71.1311932 C77.8066735,70.962931 78.0226169,70.8656175 78.25,70.8619883 C78.4749924,70.8646308 78.6896455,70.9574235 78.8463862,71.1198012 C79.003127,71.2821788 79.0890096,71.5007299 79.085,71.7270175 L79.085,77.6916959 C79.085,79.3161404 80.085,80.2817544 81.825,80.2817544 C82.8197357,80.3214147 83.8030316,80.0566168 84.645,79.5223392 L84.645,71.7270175 C84.6369115,71.5030146 84.7187162,71.2851495 84.8720044,71.1224516 C85.0252926,70.9597537 85.2371863,70.8658915 85.46,70.8619883 C85.685863,70.8632967 85.9018042,70.9555034 86.0596263,71.118028 C86.2174483,71.2805526 86.3040132,71.4998658 86.3,71.7270175 L86.3,79.9498246 C86.3144837,80.2232602 86.1805247,80.4831206 85.95,80.6287719 C84.7355922,81.4644004 83.2909833,81.8953919 81.82,81.8609357 C79.14,81.8609357 77.425,80.3169591 77.425,77.6665497 L77.435,71.7521637 Z" id="Shape" fill="#FFFFFF" fill-rule="nonzero"></path>
                <path d="M104.09,71.6666667 C104.092812,71.8914035 104.004324,72.1075617 103.845,72.2651462 L99.82,76.1527485 L103.91,80.3270175 C104.089087,80.4739354 104.19626,80.6915725 104.203927,80.9238947 C104.211594,81.1562169 104.119006,81.3805239 103.95,81.5390643 C103.622299,81.8670569 103.092701,81.8670569 102.765,81.5390643 L98.86,77.5156725 C98.5711885,77.1974898 98.1633372,77.0151625 97.735,77.0127485 L97.37,77.0127485 L97.37,80.9204678 C97.3812023,81.1496394 97.2969904,81.3731471 97.1375978,81.5372891 C96.9782053,81.701431 96.7580397,81.7913702 96.53,81.7854971 C96.0695748,81.7665335 95.7069194,81.3839634 95.71,80.9204678 L95.71,67.9450292 C95.703203,67.7224148 95.7867498,67.5066007 95.941423,67.3472284 C96.0960961,67.1878562 96.3085803,67.0986456 96.53,67.100117 C96.7536018,67.0973905 96.9688376,67.185532 97.1269596,67.3445786 C97.2850816,67.5036253 97.3727106,67.7201198 97.37,67.9450292 L97.37,75.3883041 L97.715,75.3883041 C98.1448123,75.394487 98.5584622,75.2236989 98.86,74.9155556 L102.685,71.1335673 C102.839288,70.9556187 103.065446,70.8575985 103.3,70.8670175 C103.729507,70.8874966 104.07235,71.2345268 104.09,71.6666667 Z" id="Shape" fill="#FFFFFF" fill-rule="nonzero"></path>
                <path d="M115.4,80.9204678 C115.415406,81.146389 115.336052,81.3684762 115.18119,81.5328446 C115.026328,81.6972129 114.810111,81.788841 114.585,81.7854971 C114.358278,81.786965 114.140709,81.6956345 113.982286,81.5324909 C113.823863,81.3693473 113.738207,81.1484184 113.745,80.9204678 L113.745,75.0211696 C113.745,73.2307602 112.58,72.3254971 111.005,72.3254971 C110.021217,72.2907638 109.046527,72.5254318 108.185,73.0044444 L108.185,80.9204678 C108.197378,81.145614 108.117009,81.3659474 107.962804,81.5296176 C107.8086,81.6932878 107.594179,81.7858411 107.37,81.7854971 C107.143278,81.786965 106.925709,81.6956345 106.767286,81.5324909 C106.608863,81.3693473 106.523207,81.1484184 106.53,80.9204678 L106.53,72.5920468 C106.529074,72.304526 106.667048,72.034467 106.9,71.8678363 C108.143447,71.0923006 109.587781,70.7054759 111.05,70.7563743 C113.89,70.7563743 115.405,72.2349708 115.405,74.9507602 L115.4,80.9204678 Z" id="Shape" fill="#FFFFFF" fill-rule="nonzero"></path>
                <path d="M127.45,77.7319298 C127.416802,78.8766545 126.913565,79.9563837 126.06,80.714269 C125.194658,81.5040239 124.057843,81.9242555 122.89,81.8860819 C121.723088,81.9184879 120.588345,81.4990221 119.72,80.714269 C118.866925,79.9560147 118.363793,78.8765119 118.33,77.7319298 C118.268891,76.7605816 118.268891,75.786319 118.33,74.8149708 C118.367543,73.6943052 118.863231,72.6389039 119.7,71.8980117 C120.581674,71.1245531 121.720565,70.7133758 122.89,70.7463158 C124.051577,70.7023697 125.185829,71.1072579 126.06,71.8778947 C126.914953,72.6176521 127.419721,73.6860544 127.45,74.82 C127.510792,75.7896802 127.510792,76.7622496 127.45,77.7319298 Z M119.99,77.631345 C120.099499,79.1624477 121.366366,80.3483504 122.8925,80.3483504 C124.418634,80.3483504 125.685501,79.1624477 125.795,77.631345 C125.856303,76.7338454 125.856303,75.8331722 125.795,74.9356725 C125.632211,73.4468072 124.381634,72.3196712 122.8925,72.3196712 C121.403366,72.3196712 120.152789,73.4468072 119.99,74.9356725 C119.925716,75.8330087 119.924045,76.7337738 119.985,77.631345 L119.99,77.631345 Z" id="Shape" fill="#FFFFFF" fill-rule="nonzero"></path>
                <path d="M137.095,72.7982456 C137.095,72.7378947 137.055,72.7177778 136.995,72.7177778 C136.935,72.7177778 136.895,72.7177778 136.895,72.7982456 L134.81,80.6539181 C134.583333,81.5189474 134.093333,81.9497856 133.34,81.9464327 C132.592167,81.947536 131.949467,81.4130456 131.81,80.6740351 L129.44,72.0388304 C129.336525,71.7787101 129.363914,71.4843858 129.513585,71.2480993 C129.663255,71.0118127 129.91689,70.8624794 130.195,70.8469006 C130.560163,70.8280522 130.882861,71.083851 130.95,71.4453801 L133.26,80.1208187 C133.3,80.2666667 133.425,80.2666667 133.465,80.1208187 L135.53,72.0740351 C135.682466,71.3767556 136.290334,70.8755551 137,70.8619883 C137.720647,70.8642004 138.337884,71.3815729 138.47,72.094152 L140.535,80.1409357 C140.575,80.2867836 140.7,80.2867836 140.74,80.1409357 L142.97,71.525848 C142.991343,71.3288733 143.089885,71.1485877 143.2438,71.0249251 C143.397714,70.9012625 143.594295,70.8444305 143.79,70.8670175 C144.066203,70.8868797 144.316757,71.0370745 144.46555,71.2719753 C144.614342,71.5068762 144.643809,71.7987561 144.545,72.0589474 L142.155,80.694152 C142.038377,81.4340308 141.399708,81.9757912 140.655,81.9665497 C139.903938,81.9939668 139.254885,81.4433979 139.155,80.694152 L137.095,72.7982456 Z" id="Shape" fill="#FFFFFF" fill-rule="nonzero"></path>
            </g>
        </g>
    </g>
</svg>