<?xml version="1.0" encoding="utf-8"?>
<svg viewBox="0 0 40 40" xmlns="http://www.w3.org/2000/svg">
  <defs>
    <clipPath id="clip-milk-vat">
      <rect width="40" height="40"/>
    </clipPath>
  </defs>
  <g id="milk-vat" clip-path="url(#clip-milk-vat)">
    <g id="milk_vat-24px">
      <rect id="artboard" width="40" height="40" opacity="0" style="fill: rgb(100, 220, 100);"/>
      <path id="background" d="M5,3H29V18c0,1.657-2.3,3-5.143,3H10.143C7.3,21,5,19.657,5,18Z" transform="translate(3 13)" opacity="0.3" style="fill: rgb(100, 220, 100);"/>
      <path id="vat" d="M19,2H4V28.667a6.667,6.667,0,0,0,6.667,6.667H24a6.667,6.667,0,0,0,6.667-6.667V2Zm8.333,26.667A3.333,3.333,0,0,1,24,32H10.667a3.333,3.333,0,0,1-3.333-3.333V5.333h20Z" transform="translate(2.667 1.333)" style="fill: rgb(100, 220, 100);"/>
    </g>
  </g>
</svg>